<?xml version="1.0" encoding="UTF-8"?><svg id="Ebene_1" xmlns="http://www.w3.org/2000/svg" viewBox="0 0 402.84 152.1"><defs><style>.cls-1{fill:#d9bf61;}</style></defs><path id="Path_968" class="cls-1" d="M167.19,31.52c2.62,1.91,5.51,3.41,8.58,4.46,2.28-1.06,4.67-1.86,7.12-2.39,5.41-1.18,11.04-1.02,16.37.48-9.53-6.33-21.66-7.3-32.07-2.56"/><path id="Path_969" class="cls-1" d="M177.9,45.41c1.74-1.81,3.68-3.42,5.77-4.8,4.62-3.06,9.92-4.94,15.44-5.46-11.17-2.46-22.82,1.02-30.82,9.2,3.13.83,6.37,1.19,9.61,1.06"/><path id="Path_970" class="cls-1" d="M229.84,56.33c-1.23-3-2.89-5.8-4.95-8.31-2.49-.3-4.94-.88-7.31-1.72-5.23-1.84-9.92-4.94-13.67-9.02,4.77,10.4,14.57,17.59,25.92,19.04"/><path id="Path_971" class="cls-1" d="M183.28,53.43c.97-2.31,2.2-4.51,3.65-6.56,3.2-4.52,7.47-8.19,12.42-10.68-11.31,1.74-20.91,9.2-25.42,19.71,3.22-.36,6.37-1.19,9.35-2.48"/><path id="Path_972" class="cls-1" d="M178.66,8.95c.65,3.17,1.78,6.23,3.33,9.08,2.39.76,4.69,1.77,6.86,3.03,4.8,2.77,8.84,6.68,11.77,11.39-2.78-11.1-11.08-19.98-21.97-23.49"/><path id="Path_973" class="cls-1" d="M228.04,38.9c-2.43.62-4.92.97-7.43,1.04-5.54.17-11.04-1.02-16.01-3.47,8.21,7.97,19.95,11.14,31.05,8.39-2.23-2.35-4.79-4.36-7.61-5.96"/><path id="Path_974" class="cls-1" d="M188.47,48.14c-3.14,4.96-4.89,10.66-5.09,16.52,2.87-1.5,5.51-3.42,7.82-5.69.07-2.51.42-5,1.04-7.43,1.35-5.37,4-10.33,7.73-14.44-4.68,2.69-8.62,6.48-11.49,11.04"/><path id="Path_975" class="cls-1" d="M208.29,9.49c.39,2.48.51,4.99.35,7.5-.34,5.53-2.03,10.9-4.93,15.62,4.1-3.5,7.28-7.96,9.26-12.97,2.17-5.45,2.84-11.38,1.95-17.18-2.55,2-4.78,4.37-6.64,7.03"/><path id="Path_976" class="cls-1" d="M236.94,32.04c-2.93-1.39-6.05-2.34-9.25-2.81-2.04,1.46-4.24,2.68-6.55,3.66-5.1,2.16-10.66,3.04-16.18,2.54,10.53,4.46,22.62,3.18,31.99-3.39"/><path id="Path_977" class="cls-1" d="M170.82,19.16c1.76,2.72,3.91,5.17,6.38,7.26,2.51-.16,5.02-.04,7.5.35,5.48.85,10.66,3.04,15.09,6.36-6.6-9.35-17.55-14.63-28.98-13.97"/><path id="Path_978" class="cls-1" d="M189.48,11.93c1.96,1.57,3.74,3.35,5.31,5.31,3.47,4.32,5.83,9.43,6.86,14.87,1.42-11.35-3.12-22.63-12-29.84-.54,3.2-.6,6.45-.17,9.67"/><path id="Path_979" class="cls-1" d="M205.92,53.83c-2.62-4.88-4-10.33-4.02-15.88h0c-3.48,10.9-1.09,22.82,6.32,31.54,1.11-3.04,1.77-6.24,1.94-9.47-1.64-1.9-3.06-3.98-4.24-6.19"/><path id="Path_980" class="cls-1" d="M220.26,64.93c-.06-3.24-.6-6.45-1.61-9.53-2.21-1.18-4.29-2.6-6.19-4.24-4.21-3.61-7.47-8.19-9.49-13.35.7,11.42,7.23,21.67,17.29,27.12"/><path id="Path_981" class="cls-1" d="M200.58,61.27c-.84-2.37-1.42-4.82-1.72-7.31-.68-5.5,0-11.08,1.99-16.26-7.18,8.91-9.26,20.89-5.5,31.69,2.14-2.43,3.9-5.17,5.23-8.13"/><path id="Path_982" class="cls-1" d="M223.86,20.36c-1.38,2.1-2.99,4.03-4.79,5.78-3.98,3.86-8.84,6.68-14.17,8.22,11.44.36,22.25-5.21,28.6-14.72-3.23-.24-6.48,0-9.64.73"/><path id="Path_983" class="cls-1" d="M214.72,20.59c-2.31,5.04-5.83,9.42-10.24,12.78,5.09-1.78,9.66-4.79,13.32-8.75,3.99-4.3,6.76-9.58,8.02-15.31-3.1.95-6.04,2.35-8.73,4.16-.53,2.45-1.33,4.84-2.38,7.12"/><path id="Path_984" class="cls-1" d="M202.73,32.16c5.43-10.07,5.27-22.23-.4-32.16-1.66,2.79-2.89,5.8-3.66,8.95,1.26,2.17,2.27,4.47,3.03,6.87,1.68,5.28,2.03,10.89,1.03,16.34"/><path id="Path_985" d="M139.44,131.71c-.42.74-.89,1.45-1.41,2.13l-.16.24c-2.55,3.64-5.64,6.87-9.17,9.57-2.76,1.94-5.79,3.46-8.99,4.51-2.12.68-4.32,1.07-6.54,1.14-1.16.04-2.31-.02-3.46-.2-2.06-.26-3.84-1.56-4.72-3.45-.93-2.51-1.02-5.25-.27-7.81,1.85-6.74,6.22-13.23,11.3-18.07,3.74-3.56,8-6.52,12.63-8.78,3.53-1.68,8.24-3.58,13.3-3.5,1.09-.02,2.15.35,2.99,1.04.58.5.91,1.24.89,2.01.06,2.16-.79,4.24-2.34,5.74-3.88,3.94-9.74,6.77-17.43,8.37-1.85.38-4.41-.03-5.3-1.77l-.17-.34.39.04c5.66.7,11.38-.76,16.02-4.07,1.46-1.16,3.3-3.29,3.09-5.41-.15-1.43-1.69-2.31-3.24-2.31h0c-3,0-5.94.86-8.48,2.46-5.72,3.42-10.43,8.29-13.66,14.12-2.63,5.05-3.83,9.22-3.75,13.13-.09,1.96,1.04,3.77,2.84,4.55.83.29,1.71.43,2.59.41,2.21.06,4.41-.36,6.45-1.22,4.89-2.22,9.11-5.69,12.24-10.05,1-1.28,1.93-2.62,2.77-4.02.45-.77.75-1.45,1.19-2.35l.78-1.75c.13-.31.38-.34.4.05.21,1.89-.05,3.8-.77,5.56"/><path id="Path_986" d="M11.45,146.35c6.6,4.74,17.46,4.85,25.28-.58,4.23-2.94,7.68-6.86,10.06-11.43.76-1.26,1.44-2.55,2.06-3.88,4.1-8.54,9.19-19.35,13.49-29.21,1.29-2.97-.42-3.66-2.44-2.66-.21.09-.46,0-.56-.21-.09-.19-.02-.42.17-.53,1.63-1.25,3.34-2.38,5.13-3.38,2.86-1.7,8.74-4.09,13-4.43.39-.04.47.22.15.35-3.83,1.53-6.98,6.27-8.6,9.85l-6.8,15.21c-7.51,16.22-7.5,16.44-9.57,20.1-8.57,15.17-29.87,20.8-42.55,13.16-1.55-.95-3-2.05-4.33-3.28-1.1-1.04-2.63-2.91-2.75-4.96-.2-1.48.84-2.84,2.32-3.03,0,0,0,0,0,0,.94-.19,1.86.41,2.05,1.35.04.18.05.37.02.55.06,2.83,1.49,5.45,3.85,7.02"/><path id="Path_987" d="M84.6,92.36c-3.11,6.98-8.74,19.21-8.86,19.48-9.5,20.64-15.48,33.2-17.06,36.57l-.38.74,7.82-1.44.26-.37c3.1-6.1,12.26-17.36,18.54-23.89,5.43-5.8,12.32-10.89,14.76-10.89,1.26,0,2.46.24,2.47,1.47,0,.99-.57,2.51-1.74,4.65-8.21,15.44-12.75,24-13.61,29.76l-.12.84,1.07-.4c6.74-2.68,8.36-3.09,12.39-4.83.49-.21.1-1.01-.42-.8-1.06.48-2.21.73-3.37.75-.72-.06-1.28-.66-1.29-1.38,0-1.18,2.77-6.62,10.02-20.76,2.86-5.46,4.15-7.93,4.83-9.46.27-.55.47-1.12.61-1.71.07-.38.1-.77.08-1.16v-.11c0-1.38-1.92-2.13-3.48-2.13-2.9,0-7.71,1.57-13.74,5.8-5.73,4.06-10.07,8.65-20.54,18.66l5.02-10.55c1.14-2.56,3.94-8.84,4.82-10.68,2.69-5.63,6.63-14.51,8.81-19.69l.4-.89c1.15-2.65,3.97-9.09,5.18-11.43.21-.43-.15-.72-.56-.39-4.09,2.13-8.56,3.44-13.15,3.86-10.77,1.13-21.75.51-39.58,2.13-6.18-4.19-12.58-7.93-22.82-7.18-7.73.55-15.78,4.33-18.47,10.95-.72,1.52-.66,3.29.15,4.76.53,1.11,1.75,1.71,2.95,1.47.77-.02,1.41-.6,1.51-1.36,0-.36-.09-.72-.27-1.03-.52-.94-.7-2.02-.51-3.08.43-3.44,2.74-6.05,6.28-7.74,5.83-2.78,15.76-1.82,21.24,1.5,1.45.73,2.81,1.63,4.04,2.69-1.85.31-3.45.58-5.4.97-10.04,2.18-22.83,7.84-28.64,17.15-3,4.81-4.85,10.21-3.3,15.64,1.78,6.25,6.65,8.86,12.58,10.12,1.97.3,3.97.44,5.97.4,7.81,0,16.43-3.56,23.51-9.91,8.23-8.49,9.96-18.11,5.26-29.45-.33-.87-.76-1.7-1.3-2.46.96-.09,1.44-.13,3.36-.26,11.87-.81,24.26-1.12,33.45-.24,1.95.25,2.61,1.08,2.04,3.2-.23.71-.5,1.41-.82,2.09M34.27,122.99c-7.08,3.93-15.45,4.22-21.32,1.1-4.54-2.41-6.96-6.71-7.2-12.06.22-6.76,4.62-14.88,15.6-19.62,6.34-3.01,19.45-4.38,19.45-4.38,3.07,2.69,4.85,7.69,5.7,12.06,1.71,8.75-2.38,17.02-12.23,22.9"/><path id="Path_988" d="M172.47,93.52c-7.63,5.32-12.26,13.89-13.67,22.37-.82,4.9-.6,9.91.63,14.72,1.46,5.27,4.49,9.97,8.68,13.49,5.15,4.55,11.52,6.67,18.07,7.42,1.55.17,3.1.25,4.65.24,9.41-.04,15.28-2.22,22.92-7.07,11.55-7.33,21.03-19.48,23.45-32.78,1.51-8.3-.04-13.57-2.2-19.12-2.32-5.8-6.84-10.45-12.58-12.92-4.56-2.1-9.56-3.06-14.57-2.8-6.34.19-12.48,2.26-17.65,5.95-2.17,1.6-4.16,3.44-5.93,5.48-4.23.87-8.24,2.57-11.79,5.02M182.13,91.91c-2.38,3.8-4,8.03-4.77,12.44-.97,7.67.24,14.47,3.26,22.27.6,1.56.91,2.46,1.24,3.58,1.1,3.39,1.1,7.05-.02,10.43-.51,1.45-1.53,2.68-2.86,3.45-1.21-.64-2.38-1.35-3.5-2.13-.35-.24-.58-.44-.84-.66-3.57-2.98-7.22-6.55-8.82-13.85-.53-2.59-.81-5.24-.83-7.88-.02-5.45,1.21-10.83,3.59-15.73,1.67-3.37,4.96-8,8.9-10.08,1.47-.81,3.03-1.44,4.65-1.85M203.29,80.45c1.46-.29,2.94-.43,4.42-.43,2.55,0,5.07.43,7.47,1.29,2.83.99,5.39,2.63,7.47,4.78,1.68,1.76,3.04,3.8,4,6.03,2.7,5.68,3.43,11.45,2.91,19.13-.59,8.8-3.91,17.19-9.49,24.02-4.31,5.09-9.98,8.87-16.34,10.89-5.84,1.81-15.38,1.66-21.13-.52-.44-.17-.53-.21-.96-.38.53-.34,1.01-.74,1.42-1.21.17-.18.37-.39.51-.54,1.74-1.83,3.15-5.65,3.36-8.3.54-6.65-1.17-9.98-2.95-16.47-.53-1.88-.94-3.8-1.23-5.74-.98-6.82-.64-12.96,1.79-18.2,3.46-7.43,9.64-12.58,18.74-14.35"/><path id="Path_989" d="M309.27,131.74c-.42.74-.89,1.45-1.41,2.13l-.16.24c-2.55,3.64-5.64,6.87-9.17,9.57-2.76,1.94-5.79,3.46-8.99,4.51-2.12.68-4.32,1.07-6.54,1.14-1.16.04-2.31-.02-3.46-.2-2.06-.26-3.84-1.56-4.73-3.45-.93-2.51-1.02-5.25-.27-7.81,1.85-6.74,6.22-13.23,11.3-18.07,3.74-3.55,8-6.52,12.63-8.78,3.54-1.68,8.24-3.58,13.3-3.5,1.09-.02,2.15.35,2.99,1.04.58.5.91,1.24.89,2.01.06,2.16-.79,4.24-2.34,5.74-3.88,3.94-9.74,6.77-17.43,8.37-1.85.38-4.41-.03-5.3-1.77l-.17-.34.39.04c5.66.7,11.38-.76,16.02-4.07,1.46-1.16,3.3-3.29,3.09-5.41-.15-1.43-1.69-2.31-3.24-2.31h0c-3,0-5.94.86-8.48,2.46-5.73,3.42-10.44,8.29-13.67,14.12-2.63,5.05-3.83,9.22-3.75,13.13-.09,1.96,1.04,3.77,2.83,4.55.83.29,1.71.43,2.59.41,2.21.06,4.41-.36,6.45-1.22,4.89-2.22,9.11-5.69,12.24-10.05,1.01-1.28,1.93-2.62,2.77-4.02.45-.77.75-1.45,1.19-2.35l.78-1.75c.13-.31.38-.34.4.05.21,1.89-.05,3.8-.77,5.56"/><path id="Path_990" d="M358.85,124.79c-.2.31-.46.13-.38-.25.4-2.96,2.05-5.6,4.53-7.26,2.51-1.73,5.51-2.6,8.56-2.5,2.8.11,5.13,2.16,5.6,4.92.41,2.61-.32,5.37-2.2,8.65-3.27,5.57-7.66,10.4-12.9,14.18-3.66,2.59-6.93,4.79-12.04,6.15-1.93.5-3.91.71-5.9.62-1.71.04-3.4-.36-4.91-1.18-2.18-1.31-3.47-4.6-3.21-7.27.26-5.07,2.59-10.3,7.13-15.72,5.19-6.1,11.75-10.9,19.13-13.99,4.27-1.82,8.81-2.94,13.44-3.33.18,0,.68-.02.86-.03.47-.01.94,0,1.41.05l.26.04-1.42,3.91h-.16c-6.59-.34-12.2.55-16.71,2.63-4.51,2.06-8.34,5.36-11.03,9.53-3.14,4.62-5.31,9.19-6.03,13.6-.4,2.41-.32,4.74.82,6.15,1.23,1.63,4.51,2.18,6.79,1.91,2.72-.33,5.31-1.31,7.56-2.87,5.46-3.85,8.57-8.88,11.13-14.19,1.07-2.43,2-5.03,1.6-7.61-.09-.96-.58-1.83-1.36-2.4-.77-.43-1.68-.57-2.55-.38-3.15.41-5.25,2.67-6.84,4.88-.43.6-1.02,1.46-1.19,1.77"/><path id="Path_991" d="M318.72,114.18c4.31-2.24,9.79-4.26,14.01-6.6.2,4.54-2.46,8.83-4.39,13.04,5.43-3.66,10.73-7.76,16.73-10.93,2.56-1.36,6.09-2.73,9.28-1.81-.54,1.5-1.28,2.96-1.89,4.44-3.24-.73-6.64-.29-9.58,1.26-5.8,2.84-10.91,6.9-14.99,11.9-4.97,6.67-8.17,14.63-11.3,21.86-2.25.44-5.35.92-7.58,1.39,4.74-9.95,10.23-20.33,13.83-30.56.45-1.26,1.04-3.22-.87-3.87-.78-.27-2.31.39-2.78.57s-.91-.44-.48-.68"/><path id="Path_992" d="M266.17,79.47c-3.91,1.56-9.56,3.68-13.24,5.15-.69.28-1.57.61-2.38.94-.36.13-.16.89.32.78,1.4-.35,2.75-.91,4.1-.28,1.14.52,1.15,1.67.77,2.67l-.74,1.76-27.28,58.62c7.48-.24,14.88-1.61,21.95-4.07,7.47-2.72,13.54-7.01,19.23-11.98,4.78-4.08,8.46-10.04,10.77-15.43,1.09-2.37,1.13-5.09.11-7.5-.94-1.41-2.48-2.29-4.17-2.41-3.59-.19-7.17.39-10.51,1.71-6.47,2.54-12.35,7.01-17.59,11.06,4.3-8.76,9.15-19.1,13.37-28l.42-.92,5.44-11.69c.21-.44,0-.66-.56-.42M272.26,118.4c-1.05,3.71-3.51,7.8-5.81,11.06-3.92,5.6-9.32,10.01-15.59,12.72-4.53,1.82-9.43,2.53-14.29,2.05,2.84-6.69,6.56-12.97,11.06-18.67,3.68-4.31,7.93-8.09,12.63-11.25,2.31-1.43,4.92-2.84,7.89-2.85,1.35-.06,3.17.6,3.69,1.66.83,1.63.98,3.53.42,5.27"/><path id="Path_993" d="M398.38,95.24c1.55-.53,3.69-.11,4.22,1.37,1.36,2.94-3.26,6.59-6.46,4.5-2.46-1.8-.52-5.21,2.24-5.88"/><path id="Path_994" d="M387.83,143.46l-13.61,5.3v-.32c.14-5.54,2.77-10.69,5.31-15.67.27-.52.53-1.04.79-1.56.86-1.68,1.77-3.38,2.65-5.02,1.87-3.48,3.8-7.07,5.31-10.73.45-.79.55-1.73.26-2.6-.21-.5-.66-.86-1.2-.93-1.13-.05-2.26.13-3.32.51-.21.1-.47,0-.57-.21-.1-.21,0-.47.21-.57h0c3.88-1.46,8.74-3.11,12.64-4.57l1.07-.4v.3c-.05,2.96-1.28,5.76-2.47,8.47l-.24.53c-2.02,4.36-4.27,8.73-6.45,12.94-1.36,2.63-2.76,5.34-4.09,8.03-.15.33-.31.68-.47,1.01-.61,1.11-1.06,2.29-1.34,3.52-.08.37,0,.75.22,1.05.42.59,1.11.92,1.83.88,1.02-.15,2.03-.41,2.99-.77.6-.22.94.57.45.79"/></svg>